<?xml version="1.0" encoding="UTF-8"?>
<svg id="Layer_2" data-name="Layer 2" xmlns="http://www.w3.org/2000/svg" viewBox="0 0 661.3 527.1">
  <defs>
    <style>
      .cls-1 {
        stroke: #4547c6;
      }

      .cls-1, .cls-2 {
        fill: none;
        stroke-miterlimit: 10;
        stroke-width: 32px;
      }

      .cls-2 {
        stroke: #20225c;
      }
    </style>
  </defs>
  <g id="Layer_6" data-name="Layer 6">
    <g>
      <path class="cls-2" d="M300.13,94.7c158.71,140.26,238.41,342.65,214,361-18.08,13.59-73.72-88.47-209-135-129.76-44.63-283.91-21.36-289,12-9.83,64.37,520.64,262.85,614,138,48.52-64.88-30.76-204.04-78-265C440.47,61.63,252.78,25.52,244.13,41.7c-3.5,6.55,21.78,22.76,56,53Z"/>
      <path class="cls-1" d="M300.13,72.57c158.71,140.26,238.41,342.65,214,361-18.08,13.59-73.72-88.47-209-135-129.76-44.63-283.91-21.36-289,12-9.83,64.37,520.64,262.85,614,138,48.52-64.88-30.76-204.04-78-265C440.47,39.5,252.78,3.39,244.13,19.57c-3.5,6.55,21.78,22.76,56,53Z"/>
    </g>
  </g>
</svg>