<?xml version="1.0" encoding="UTF-8"?>
<svg id="Layer_2" data-name="Layer 2" xmlns="http://www.w3.org/2000/svg" viewBox="0 0 346.48 609.73">
  <defs>
    <style>
      .cls-1 {
        stroke: #d6fd2a;
      }

      .cls-1, .cls-2 {
        fill: none;
        stroke-miterlimit: 10;
        stroke-width: 32px;
      }

      .cls-2 {
        stroke: #76ff67;
      }
    </style>
  </defs>
  <g id="Layer_3" data-name="Layer 3">
    <g>
      <path class="cls-2" d="M36.16,31.06c-32.86,33.71,12.43,100.67,63,258,25.9,80.59,51.16,178.57,108,250,16.05,20.17,38.63,43.26,66,42,24.39-1.12,41.48-21.06,44-24,25.63-29.9,19.63-87.59-66-285C154.8,49.9,116.64,17.46,80.16,16.06c-4.06-.16-28.32-1.08-44,15Z"/>
      <path class="cls-1" d="M27.16,43.68c-32.86,33.71,12.43,100.67,63,258,25.9,80.59,51.16,178.57,108,250,16.05,20.17,38.63,43.26,66,42,24.39-1.12,41.48-21.06,44-24,25.63-29.9,19.63-87.59-66-285C145.8,62.52,107.64,30.07,71.16,28.68c-4.06-.16-28.32-1.08-44,15Z"/>
    </g>
  </g>
</svg>