<?xml version="1.0" encoding="UTF-8"?>
<svg id="Layer_2" data-name="Layer 2" xmlns="http://www.w3.org/2000/svg" viewBox="0 0 401.42 636.06">
  <defs>
    <style>
      .cls-1 {
        stroke: #d6fd2a;
      }

      .cls-1, .cls-2 {
        fill: none;
        stroke-miterlimit: 10;
        stroke-width: 32px;
      }

      .cls-2 {
        stroke: #76ff67;
      }
    </style>
  </defs>
  <g id="Layer_2-2" data-name="Layer 2">
    <g>
      <path class="cls-2" d="M161.83,241.87C46.07,300.29,1.92,490.77,42.83,520.87c21.83,16.07,48.76-27.65,107-21,91.77,10.48,128.52,130.86,173.82,119.43,26.8-6.76,36.33-54.56,40.18-75.43,39.73-215.34,18.84-512.97-16-512-21.89,.61-6.82,117.94-92.72,176.32-36.29,24.67-53.62,13.67-93.28,33.68Z"/>
      <path class="cls-1" d="M149.95,226C34.19,284.42-9.96,474.91,30.95,505c21.83,16.07,48.76-27.65,107-21,91.77,10.48,128.52,130.86,173.82,119.43,26.8-6.76,36.33-54.56,40.18-75.43,39.73-215.34,18.84-512.97-16-512-21.89,.61-6.82,117.94-92.72,176.32-36.29,24.67-53.62,13.67-93.28,33.68Z"/>
    </g>
  </g>
</svg>