<?xml version="1.0" encoding="UTF-8"?>
<svg id="Layer_2" data-name="Layer 2" xmlns="http://www.w3.org/2000/svg" viewBox="0 0 380.08 517.86">
  <defs>
    <style>
      .cls-1 {
        stroke: #4547c6;
      }

      .cls-1, .cls-2 {
        fill: none;
        stroke-miterlimit: 10;
        stroke-width: 32px;
      }

      .cls-2 {
        stroke: #20225c;
      }
    </style>
  </defs>
  <g id="Layer_5" data-name="Layer 5">
    <g>
      <path class="cls-2" d="M46.36,216.2c6.05,22.43,17.87,58.65,41.51,131.11,30.41,93.19,37.22,111.01,58,125,28.66,19.3,68.76,21.1,99,10,82.88-30.42,114.84-166.26,96-268-5.33-28.79-21.54-116.29-98.91-164.59C166.12,2.37,51.99,5.48,20.87,55.31c-12.5,20,.17,66.97,25.49,160.89Z"/>
      <path class="cls-1" d="M64.33,228.92c6.05,22.43,17.87,58.65,41.51,131.11,30.41,93.19,37.22,111.01,58,125,28.66,19.3,68.76,21.1,99,10,82.88-30.42,114.84-166.26,96-268-5.33-28.79-21.54-116.29-98.91-164.59C184.09,15.1,69.96,18.2,38.84,68.03c-12.5,20,.17,66.97,25.49,160.89Z"/>
    </g>
  </g>
</svg>