<?xml version="1.0" encoding="UTF-8"?>
<svg id="Layer_1" data-name="Layer 1" xmlns="http://www.w3.org/2000/svg" viewBox="0 0 1440 900">
  <defs>
    <style>
      .cls-1 {
        fill: #fe6f4f;
      }

      .cls-2 {
        stroke: #4547c6;
      }

      .cls-2, .cls-3 {
        fill: none;
        stroke-miterlimit: 10;
        stroke-width: 32px;
      }

      .cls-3 {
        stroke: #20225c;
      }
    </style>
  </defs>
  <g>
    <path class="cls-1" d="M506.06,110.5c5.61,0,10.26,2.13,13.93,6.39,3.67,4.26,5.51,9.77,5.51,16.54v158.98c0,6.52-1.84,11.97-5.51,16.35-3.68,4.39-8.32,6.58-13.93,6.58s-10.26-2.19-13.93-6.58c-3.68-4.38-5.51-9.83-5.51-16.35v-18.42l7.13,3.38c0,3.26-1.51,7.21-4.54,11.84-3.03,4.64-7.13,9.21-12.31,13.72-5.18,4.51-11.29,8.33-18.31,11.46-7.02,3.13-14.64,4.7-22.84,4.7-14.9,0-28.41-4.45-40.5-13.34-12.1-8.89-21.66-21.17-28.67-36.83-7.02-15.66-10.53-33.64-10.53-53.93s3.51-38.65,10.53-54.31c7.02-15.66,16.47-27.94,28.35-36.83,11.88-8.89,25.05-13.34,39.53-13.34,9.28,0,17.82,1.63,25.6,4.89,7.78,3.26,14.52,7.39,20.25,12.4,5.72,5.01,10.15,10.09,13.28,15.22,3.13,5.14,4.7,9.46,4.7,12.97l-11.66,4.89v-27.44c0-6.51,1.83-11.96,5.51-16.35,3.67-4.38,8.31-6.58,13.93-6.58Zm-65.45,167.25c9.5,0,17.82-2.75,24.95-8.27,7.13-5.51,12.69-13.03,16.69-22.55,3.99-9.52,5.99-20.17,5.99-31.95s-2-22.8-5.99-32.32c-4-9.52-9.56-17.04-16.69-22.55-7.13-5.51-15.45-8.27-24.95-8.27s-17.5,2.76-24.62,8.27c-7.13,5.51-12.69,13.03-16.69,22.55-4,9.52-5.99,20.3-5.99,32.32s1.99,22.43,5.99,31.95c3.99,9.52,9.56,17.04,16.69,22.55,7.13,5.51,15.33,8.27,24.62,8.27Z"/>
    <path class="cls-1" d="M663.33,235.5c17.28,0,30.02,4.83,38.23,14.47,8.21,9.65,13.61,22.12,16.2,37.4l-5.51-3.38,2.59-6.01c2.59-5.76,6.59-11.96,11.99-18.6,5.4-6.64,11.93-12.27,19.6-16.91,7.66-4.63,16.25-6.95,25.76-6.95,15.55,0,27.38,3.89,35.48,11.65,8.1,7.77,13.66,18.1,16.69,31.01,3.02,12.91,4.54,27.25,4.54,43.03v96.21c0,6.52-1.84,11.97-5.51,16.35-3.68,4.39-8.32,6.58-13.93,6.58s-10.26-2.19-13.93-6.58c-3.68-4.38-5.51-9.83-5.51-16.35v-96.21c0-8.27-.87-15.72-2.59-22.36-1.73-6.64-4.86-11.96-9.4-15.97-4.54-4-11.02-6.01-19.44-6.01s-15.23,2.01-21.06,6.01c-5.83,4.01-10.21,9.34-13.12,15.97-2.92,6.64-4.37,14.09-4.37,22.36v96.21c0,6.52-1.84,11.97-5.51,16.35-3.68,4.39-8.32,6.58-13.93,6.58s-10.26-2.19-13.93-6.58c-3.68-4.38-5.51-9.83-5.51-16.35v-96.21c0-8.27-.87-15.72-2.59-22.36-1.73-6.64-4.86-11.96-9.4-15.97-4.54-4-11.02-6.01-19.44-6.01s-15.23,2.01-21.06,6.01c-5.83,4.01-10.21,9.34-13.12,15.97-2.92,6.64-4.37,14.09-4.37,22.36v96.21c0,6.52-1.84,11.97-5.51,16.35-3.68,4.39-8.32,6.58-13.93,6.58s-10.26-2.19-13.93-6.58c-3.68-4.38-5.51-9.83-5.51-16.35v-155.22c0-6.51,1.83-11.96,5.51-16.35,3.67-4.38,8.31-6.58,13.93-6.58s10.26,2.2,13.93,6.58c3.67,4.39,5.51,9.84,5.51,16.35v16.16l-4.86-1.13c1.94-4.26,4.64-8.83,8.1-13.72,3.45-4.89,7.66-9.46,12.64-13.72,4.97-4.26,10.47-7.7,16.52-10.34,6.04-2.63,12.64-3.95,19.76-3.95Z"/>
    <path class="cls-1" d="M957.72,235.5c17.28,0,30.02,4.83,38.23,14.47,8.21,9.65,13.61,22.12,16.2,37.4l-5.51-3.38,2.59-6.01c2.59-5.76,6.59-11.96,11.99-18.6,5.4-6.64,11.93-12.27,19.6-16.91,7.67-4.63,16.25-6.95,25.76-6.95,15.55,0,27.38,3.89,35.48,11.65,8.1,7.77,13.66,18.1,16.69,31.01,3.02,12.91,4.54,27.25,4.54,43.03v96.21c0,6.52-1.84,11.97-5.51,16.35-3.68,4.39-8.32,6.58-13.93,6.58s-10.26-2.19-13.93-6.58c-3.67-4.38-5.51-9.83-5.51-16.35v-96.21c0-8.27-.87-15.72-2.59-22.36-1.73-6.64-4.86-11.96-9.4-15.97-4.54-4-11.02-6.01-19.44-6.01s-15.23,2.01-21.06,6.01c-5.83,4.01-10.21,9.34-13.12,15.97-2.92,6.64-4.37,14.09-4.37,22.36v96.21c0,6.52-1.84,11.97-5.51,16.35-3.67,4.39-8.32,6.58-13.93,6.58s-10.26-2.19-13.93-6.58c-3.67-4.38-5.51-9.83-5.51-16.35v-96.21c0-8.27-.87-15.72-2.59-22.36-1.73-6.64-4.86-11.96-9.4-15.97-4.54-4-11.02-6.01-19.44-6.01s-15.23,2.01-21.06,6.01c-5.83,4.01-10.21,9.34-13.12,15.97-2.92,6.64-4.37,14.09-4.37,22.36v96.21c0,6.52-1.84,11.97-5.51,16.35-3.67,4.39-8.32,6.58-13.93,6.58s-10.26-2.19-13.93-6.58c-3.68-4.38-5.51-9.83-5.51-16.35v-155.22c0-6.51,1.83-11.96,5.51-16.35,3.67-4.38,8.31-6.58,13.93-6.58s10.26,2.2,13.93,6.58c3.67,4.39,5.51,9.84,5.51,16.35v16.16l-4.86-1.13c1.94-4.26,4.64-8.83,8.1-13.72,3.45-4.89,7.67-9.46,12.64-13.72,4.97-4.26,10.47-7.7,16.52-10.34,6.04-2.63,12.64-3.95,19.76-3.95Z"/>
    <path class="cls-1" d="M1314.98,110.5c5.61,0,10.26,2.13,13.93,6.39,3.67,4.26,5.51,9.77,5.51,16.54v158.98c0,6.52-1.84,11.97-5.51,16.35-3.68,4.39-8.32,6.58-13.93,6.58s-10.26-2.19-13.93-6.58c-3.68-4.38-5.51-9.83-5.51-16.35v-18.42l7.13,3.38c0,3.26-1.51,7.21-4.54,11.84-3.03,4.64-7.13,9.21-12.31,13.72-5.18,4.51-11.29,8.33-18.31,11.46-7.02,3.13-14.64,4.7-22.84,4.7-14.9,0-28.41-4.45-40.5-13.34-12.1-8.89-21.66-21.17-28.67-36.83-7.02-15.66-10.53-33.64-10.53-53.93s3.51-38.65,10.53-54.31c7.02-15.66,16.47-27.94,28.35-36.83,11.88-8.89,25.05-13.34,39.53-13.34,9.28,0,17.82,1.63,25.6,4.89,7.78,3.26,14.52,7.39,20.25,12.4,5.72,5.01,10.15,10.09,13.28,15.22,3.13,5.14,4.7,9.46,4.7,12.97l-11.66,4.89v-27.44c0-6.51,1.83-11.96,5.51-16.35,3.67-4.38,8.31-6.58,13.93-6.58Zm-65.45,167.25c9.5,0,17.82-2.75,24.95-8.27,7.13-5.51,12.69-13.03,16.69-22.55,3.99-9.52,5.99-20.17,5.99-31.95s-2-22.8-5.99-32.32c-4-9.52-9.56-17.04-16.69-22.55-7.13-5.51-15.45-8.27-24.95-8.27s-17.5,2.76-24.62,8.27c-7.13,5.51-12.69,13.03-16.69,22.55-4,9.52-5.99,20.3-5.99,32.32s2,22.43,5.99,31.95c3.99,9.52,9.56,17.04,16.69,22.55,7.13,5.51,15.33,8.27,24.62,8.27Z"/>
    <path class="cls-1" d="M301.73,743.99c5.18,0,9.5,2.01,12.96,6.01,3.45,4.01,5.18,9.02,5.18,15.03s-1.73,10.59-5.18,14.47c-3.46,3.89-7.78,5.83-12.96,5.83h-110.16c-5.62,0-10.04-2-13.28-6.01-3.24-4-4.86-9.14-4.86-15.41s1.94-11.77,5.83-16.54l70.63-87.57c7.99-10.02,14.31-20.3,18.95-30.82,4.64-10.52,6.97-19.67,6.97-27.44,0-12.53-3.13-22.61-9.4-30.25-6.27-7.64-14.58-11.46-24.95-11.46-4.11,0-8.32,1.13-12.64,3.38-4.32,2.25-8.48,5.39-12.47,9.4-4,4.01-7.73,8.64-11.18,13.91-2.59,4.01-5.18,6.52-7.78,7.52-2.59,1-4.97,1.5-7.13,1.5-4.75,0-9.13-2.07-13.12-6.2-4-4.13-5.99-8.96-5.99-14.47,0-4.26,1.24-8.39,3.73-12.4,2.48-4,5.56-8.14,9.23-12.4,5.4-6.26,11.45-11.77,18.14-16.54,6.69-4.76,13.61-8.46,20.74-11.09s14.04-3.95,20.74-3.95c14.47,0,27.05,3.32,37.75,9.96,10.69,6.64,18.95,16.04,24.79,28.19,5.83,12.16,8.75,26.5,8.75,43.03,0,13.78-3.51,29.13-10.53,46.04-7.02,16.91-16.47,32.76-28.35,47.54l-43.74,54.12-3.56-3.38h72.9Z"/>
    <path class="cls-1" d="M590.32,586.21c5.61,0,10.26,2.13,13.93,6.39,3.67,4.26,5.51,9.77,5.51,16.54v232.27c0,6.52-1.84,11.97-5.51,16.35-3.68,4.39-8.32,6.58-13.93,6.58s-10.26-2.19-13.93-6.58c-3.68-4.38-5.51-9.83-5.51-16.35v-18.42l7.13,3.38c0,3.26-1.51,7.21-4.54,11.84-3.03,4.64-7.13,9.21-12.31,13.72-5.18,4.51-11.29,8.33-18.31,11.46-7.02,3.13-14.64,4.7-22.84,4.7-14.9,0-28.41-4.45-40.5-13.34-12.1-8.89-21.66-21.17-28.67-36.83-7.02-15.66-10.53-33.64-10.53-53.93s3.51-38.65,10.53-54.31c7.02-15.66,16.47-27.94,28.35-36.83,11.88-8.89,25.05-13.34,39.53-13.34,9.28,0,17.82,1.63,25.6,4.89,7.78,3.26,14.52,7.39,20.25,12.4,5.72,5.01,10.15,10.09,13.28,15.22,3.13,5.14,4.7,9.46,4.7,12.97l-11.66,4.89v-100.72c0-6.51,1.83-11.96,5.51-16.35,3.67-4.38,8.31-6.58,13.93-6.58Zm-65.45,240.54c9.5,0,17.82-2.75,24.95-8.27,7.13-5.51,12.69-13.03,16.69-22.55,3.99-9.52,5.99-20.17,5.99-31.95s-2-22.8-5.99-32.32c-4-9.52-9.56-17.04-16.69-22.55-7.13-5.51-15.45-8.27-24.95-8.27s-17.5,2.76-24.62,8.27c-7.13,5.51-12.69,13.03-16.69,22.55-4,9.53-5.99,20.3-5.99,32.32s1.99,22.43,5.99,31.95c3.99,9.53,9.56,17.04,16.69,22.55,7.13,5.51,15.33,8.27,24.62,8.27Z"/>
    <path class="cls-1" d="M854.7,617.98c0,20.55-3.94,38.65-11.83,54.31-7.89,15.66-18.47,27.88-31.75,36.64-13.28,8.77-28.14,13.16-44.55,13.16s-31.27-4.38-44.55-13.16c-13.28-8.77-23.87-20.98-31.75-36.64-7.89-15.66-11.83-33.76-11.83-54.31s3.94-38.65,11.83-54.31c7.88-15.66,18.47-27.94,31.75-36.83,13.28-8.89,28.13-13.34,44.55-13.34s31.27,4.45,44.55,13.34c13.28,8.9,23.86,21.18,31.75,36.83,7.88,15.66,11.83,33.77,11.83,54.31Zm-38.88,0c0-12.78-2.22-23.87-6.64-33.26-4.43-9.4-10.37-16.72-17.82-21.99s-15.71-7.89-24.79-7.89-17.33,2.63-24.79,7.89c-7.45,5.26-13.4,12.59-17.82,21.99-4.43,9.4-6.64,20.48-6.64,33.26s2.21,23.49,6.64,32.89c4.42,9.4,10.37,16.72,17.82,21.99,7.45,5.26,15.71,7.89,24.79,7.89s17.33-2.63,24.79-7.89,13.39-12.59,17.82-21.99c4.42-9.4,6.64-20.35,6.64-32.89Z"/>
    <path class="cls-1" d="M1060.33,581.01h76.79c5.18,0,9.5,2.01,12.96,6.01,3.45,4.01,5.18,9.02,5.18,15.03s-1.73,10.59-5.18,14.47c-3.46,3.89-7.78,5.83-12.96,5.83h-76.79c-5.18,0-9.51-2-12.96-6.01-3.46-4-5.18-9.02-5.18-15.03s1.73-10.58,5.18-14.47c3.45-3.88,7.78-5.83,12.96-5.83Zm34.67-46.98c5.61,0,10.21,2.2,13.77,6.58,3.56,4.39,5.35,9.84,5.35,16.35v167.25c0,3.51,.59,6.39,1.78,8.64,1.18,2.25,2.8,3.89,4.86,4.89,2.05,1,4.26,1.5,6.64,1.5,2.59,0,4.97-.56,7.13-1.69,2.16-1.13,4.64-1.69,7.45-1.69,3.02,0,5.78,1.63,8.26,4.89,2.48,3.26,3.73,7.77,3.73,13.53,0,7.02-3.29,12.78-9.88,17.29-6.59,4.51-13.66,6.76-21.22,6.76-4.54,0-9.56-.43-15.07-1.32-5.51-.88-10.69-3.01-15.55-6.39-4.86-3.38-8.91-8.58-12.15-15.6-3.24-7.01-4.86-16.66-4.86-28.94v-169.13c0-6.51,1.89-11.96,5.67-16.35,3.78-4.38,8.47-6.58,14.09-6.58Z"/>
    <path class="cls-1" d="M1295.59,743.99c5.18,0,9.5,2.01,12.96,6.01,3.45,4.01,5.18,9.02,5.18,15.03s-1.73,10.59-5.18,14.47c-3.46,3.89-7.78,5.83-12.96,5.83h-110.16c-5.62,0-10.04-2-13.28-6.01-3.24-4-4.86-9.14-4.86-15.41s1.94-11.77,5.83-16.54l70.63-87.57c7.99-10.02,14.31-20.3,18.95-30.82,4.64-10.52,6.97-19.67,6.97-27.44,0-12.53-3.13-22.61-9.4-30.25-6.27-7.64-14.58-11.46-24.95-11.46-4.11,0-8.32,1.13-12.64,3.38-4.32,2.25-8.48,5.39-12.47,9.4-4,4.01-7.73,8.64-11.18,13.91-2.59,4.01-5.18,6.52-7.78,7.52-2.59,1-4.97,1.5-7.13,1.5-4.75,0-9.13-2.07-13.12-6.2-4-4.13-5.99-8.96-5.99-14.47,0-4.26,1.24-8.39,3.73-12.4,2.48-4,5.56-8.14,9.23-12.4,5.4-6.26,11.45-11.77,18.14-16.54,6.69-4.76,13.61-8.46,20.74-11.09s14.04-3.95,20.74-3.95c14.47,0,27.05,3.32,37.75,9.96,10.69,6.64,18.95,16.04,24.79,28.19,5.83,12.16,8.75,26.5,8.75,43.03,0,13.78-3.51,29.13-10.53,46.04-7.02,16.91-16.47,32.76-28.35,47.54l-43.74,54.12-3.56-3.38h72.9Z"/>
    <path class="cls-1" d="M222.29,197.67c9.07,0,17.38,1.63,24.95,4.89,7.56,3.26,14.09,7.39,19.6,12.4,5.51,5.01,9.83,10.09,12.96,15.22,3.13,5.14,4.7,9.46,4.7,12.97l-8.42,4.89v-27.44c0-6.51,1.83-11.96,5.51-16.35,3.67-4.38,8.31-6.58,13.93-6.58s10.26,2.13,13.93,6.39c3.67,4.26,5.51,9.77,5.51,16.54v167.25c0,21.8-4.05,39.28-12.15,52.43s-18.74,22.67-31.91,28.56c-13.18,5.88-27.33,8.83-42.44,8.83-4.32,0-9.94-.63-16.85-1.88-6.92-1.26-13.5-2.76-19.76-4.51-6.27-1.76-11.02-3.38-14.26-4.89-6.48-3.26-10.97-7.33-13.45-12.21-2.49-4.89-2.97-10.09-1.46-15.6,1.94-7.27,5.07-12.21,9.4-14.85,4.32-2.63,8.85-2.95,13.61-.94,2.16,.75,5.72,2.25,10.69,4.51,4.97,2.25,10.42,4.32,16.36,6.2,5.94,1.88,11.18,2.82,15.71,2.82,16.2,0,28.19-3.76,35.96-11.28,7.78-7.52,11.66-17.92,11.66-31.19v-32.7l3.89,3.38c0,3.26-1.46,7.21-4.37,11.84-2.92,4.64-6.92,9.21-11.99,13.72-5.08,4.51-11.07,8.33-17.98,11.46-6.92,3.13-14.26,4.7-22.03,4.7-15.34,0-29.16-4.45-41.47-13.34-12.31-8.89-22.03-21.17-29.16-36.83-7.13-15.66-10.69-33.64-10.69-53.93s3.56-38.65,10.69-54.31c7.13-15.66,16.74-27.94,28.84-36.83,12.09-8.89,25.6-13.34,40.5-13.34Zm6.16,41.34c-9.72,0-18.26,2.76-25.6,8.27-7.35,5.51-13.07,13.03-17.17,22.55-4.11,9.52-6.16,20.3-6.16,32.32s2.05,22.43,6.16,31.95c4.1,9.52,9.83,17.04,17.17,22.55,7.34,5.51,15.88,8.27,25.6,8.27s18.57-2.75,25.92-8.27c7.34-5.51,13.07-13.03,17.17-22.55,4.1-9.52,6.16-20.17,6.16-31.95s-2.06-22.8-6.16-32.32c-4.11-9.52-9.83-17.04-17.17-22.55-7.35-5.51-15.99-8.27-25.92-8.27Z"/>
  </g>
  <g>
    <path class="cls-3" d="M351.95,210.54c18.76-18.99,58.95-16.97,85-9,148.64,45.5,234.16,136.27,308,161,109.02,36.52,364.59,84.33,485-12,45-36,45-99,18-126-54.5-54.5-137.2-63.05-399-102-282.81-42.07-425.7-62.09-498-12-97.87,67.8-122.58,183.8-132,228-24.37,114.4-17.66,269.34,104,391,74,74,117,81,227,32,73.68-32.82,150.12-101.07,223-110,155-19,167.3,42.93,345,12,40.02-6.96,103.3-18.89,124-67,14.74-34.26,6.02-82.49-22-104-43.54-33.43-120.34,7.94-179,30-87.93,33.06-184.8,92.22-278,82-151.28-16.6-292.91-133.46-371-226-54-64-68.3-139.36-40-168Z"/>
    <path class="cls-2" d="M356,198c18.76-18.99,58.95-16.97,85-9,148.64,45.5,234.16,136.27,308,161,109.02,36.52,364.59,84.33,485-12,45-36,45-99,18-126-54.5-54.5-137.2-63.05-399-102-282.81-42.07-425.7-62.09-498-12-97.87,67.8-122.58,183.8-132,228-24.37,114.4-17.66,269.34,104,391,74,74,117,81,227,32,73.68-32.82,150.12-101.07,223-110,155-19,167.3,42.93,345,12,40.02-6.96,103.3-18.89,124-67,14.74-34.26,6.02-82.49-22-104-43.54-33.43-120.34,7.94-179,30-87.93,33.06-184.8,92.22-278,82-151.28-16.6-292.91-133.46-371-226-54-64-68.3-139.36-40-168Z"/>
  </g>
  <g>
    <path class="cls-1" d="M520.1,262.2c-7.2-4.07-14.58-7.81-21.78-11.88-1.8-1.02-2.93-2.36-3.53-3.81-3.51-1.66-7.03-3.33-10.54-4.99-.6,1.84-1.26,3.65-2,5.41-4,9.52-9.56,17.04-16.69,22.55-7.13,5.51-15.45,8.27-24.95,8.27s-17.5-2.75-24.62-8.27c-7.13-5.51-12.69-13.03-16.69-22.55-4-9.52-5.99-20.17-5.99-31.95s1.99-22.8,5.99-32.32c3.99-9.52,9.56-17.04,16.69-22.55,7.13-5.51,15.33-8.27,24.62-8.27s17.82,2.76,24.95,8.27c5.93,4.58,10.75,10.57,14.51,17.92,1.14-.27,2.39-.3,3.71,0,9.45,2.12,18.86,4.61,28.04,7.71,4.57,1.54,9.35,3.24,13.68,5.6v-57.92c0-6.77-1.84-12.27-5.51-16.54-3.68-4.26-8.32-6.39-13.93-6.39s-10.26,2.2-13.93,6.58c-3.68,4.39-5.51,9.84-5.51,16.35v.5c-1.9-2.06-4-4.1-6.32-6.14-5.73-5.01-12.47-9.14-20.25-12.4-7.78-3.25-16.31-4.89-25.6-4.89-14.47,0-27.65,4.45-39.53,13.34-11.88,8.9-21.33,21.18-28.35,36.83-7.02,15.66-10.53,33.77-10.53,54.31s3.51,38.28,10.53,53.93c7.02,15.66,16.57,27.94,28.67,36.83,12.09,8.9,25.6,13.34,40.5,13.34,8.21,0,15.82-1.57,22.84-4.7,7.02-3.13,13.12-6.95,18.31-11.46,3.84-3.34,7.08-6.71,9.73-10.12,.08,6.34,1.9,11.66,5.49,15.95,3.67,4.39,8.31,6.58,13.93,6.58s10.26-2.19,13.93-6.58c3.67-4.38,5.51-9.83,5.51-16.35v-29.25c-1.67,.34-3.51,.11-5.41-.96Z"/>
    <path class="cls-1" d="M686.39,370.94c-2.87-.97-4.55-2.96-5.25-5.21v51.68c0,6.52,1.83,11.97,5.51,16.35,3.67,4.39,8.31,6.58,13.93,6.58s10.26-2.19,13.93-6.58c3.67-4.38,5.51-9.83,5.51-16.35v-33.97c-11.22-4.14-22.3-8.67-33.63-12.49Z"/>
    <path class="cls-1" d="M824.36,278.16c-3.03-12.9-8.59-23.24-16.69-31.01-8.1-7.76-19.93-11.65-35.48-11.65-9.51,0-18.09,2.32-25.76,6.95-7.67,4.64-14.21,10.28-19.6,16.91-5.04,6.2-8.84,12.02-11.44,17.45-2.99-10.57-7.6-19.52-13.83-26.85-8.21-9.64-20.95-14.47-38.23-14.47-7.13,0-13.72,1.32-19.76,3.95-6.05,2.63-11.56,6.08-16.52,10.34-4.97,4.26-9.18,8.83-12.64,13.72-1.17,1.65-2.24,3.27-3.24,4.85v-6.16c0-6.51-1.84-11.96-5.51-16.35-3.68-4.38-8.32-6.58-13.93-6.58s-10.26,2.2-13.93,6.58c-3.68,4.39-5.51,9.84-5.51,16.35v155.22c0,6.52,1.83,11.97,5.51,16.35,3.67,4.39,8.31,6.58,13.93,6.58s10.26-2.19,13.93-6.58c3.67-4.38,5.51-9.83,5.51-16.35v-96.21c0-8.27,1.46-15.72,4.37-22.36,2.92-6.64,7.29-11.96,13.12-15.97,5.83-4,12.85-6.01,21.06-6.01s14.9,2.01,19.44,6.01c.73,.65,1.42,1.35,2.08,2.07,.47,0,.95,.06,1.44,.15,1.79-.48,3.88-.35,6.12,.71,2.97,1.41,5.95,2.82,8.92,4.23,11.72,4.37,23.17,9.44,34.64,14.42,.58-1.93,1.25-3.8,2.05-5.61,2.92-6.64,7.29-11.96,13.12-15.97,5.83-4,12.85-6.01,21.06-6.01s14.9,2.01,19.44,6.01c4.54,4.01,7.66,9.34,9.4,15.97,1.73,6.64,2.59,14.09,2.59,22.36v96.21c0,6.52,1.83,11.97,5.51,16.35,3.67,4.39,8.31,6.58,13.93,6.58s10.26-2.19,13.93-6.58c3.67-4.38,5.51-9.83,5.51-16.35v-96.21c0-15.79-1.51-30.13-4.54-43.03Z"/>
    <path class="cls-1" d="M1118.75,278.16c-3.03-12.9-8.59-23.24-16.69-31.01-8.1-7.76-19.93-11.65-35.48-11.65-9.51,0-18.09,2.32-25.76,6.95-7.67,4.64-14.21,10.28-19.6,16.91-5.04,6.2-8.85,12.02-11.44,17.45-3-10.57-7.6-19.52-13.83-26.85-8.21-9.64-20.95-14.47-38.23-14.47-7.13,0-13.72,1.32-19.76,3.95-6.05,2.63-11.56,6.08-16.52,10.34-4.97,4.26-9.18,8.83-12.64,13.72-1.17,1.65-2.24,3.27-3.24,4.85v-6.16c0-6.51-1.84-11.96-5.51-16.35-3.67-4.38-8.32-6.58-13.93-6.58s-10.26,2.2-13.93,6.58c-3.68,4.39-5.51,9.84-5.51,16.35v155.22c0,6.52,1.83,11.97,5.51,16.35,3.67,4.39,8.31,6.58,13.93,6.58s10.26-2.19,13.93-6.58c3.67-4.38,5.51-9.83,5.51-16.35v-96.21c0-8.27,1.46-15.72,4.37-22.36,2.92-6.64,7.29-11.96,13.12-15.97,5.83-4,12.85-6.01,21.06-6.01s14.9,2.01,19.44,6.01c4.54,4.01,7.67,9.34,9.4,15.97,1.73,6.64,2.59,14.09,2.59,22.36v42.22c8.34,.5,16.67,1.46,24.76,3.32,4.75,.13,9.48,.51,14.12,1.44v-46.99c0-8.27,1.46-15.72,4.37-22.36,2.92-6.64,7.29-11.96,13.12-15.97,5.83-4,12.85-6.01,21.06-6.01s14.9,2.01,19.44,6.01c4.54,4.01,7.67,9.34,9.4,15.97,1.73,6.64,2.59,14.09,2.59,22.36v96.21c0,6.52,1.83,11.97,5.51,16.35,3.67,4.39,8.31,6.58,13.93,6.58s10.26-2.19,13.93-6.58c3.67-4.38,5.51-9.83,5.51-16.35v-96.21c0-15.79-1.51-30.13-4.54-43.03Z"/>
    <path class="cls-1" d="M1328.91,116.89c-3.68-4.26-8.32-6.39-13.93-6.39s-10.26,2.2-13.93,6.58c-3.68,4.39-5.51,9.84-5.51,16.35v.5c-1.9-2.06-4-4.1-6.32-6.14-5.73-5.01-12.47-9.14-20.25-12.4-7.78-3.25-16.31-4.89-25.6-4.89-14.47,0-27.65,4.45-39.53,13.34-11.88,8.9-21.33,21.18-28.35,36.83-7.02,15.66-10.53,33.77-10.53,54.31s3.51,38.28,10.53,53.93c7.02,15.66,16.57,27.94,28.67,36.83,4.62,3.4,9.45,6.14,14.48,8.24,3.57-3.82,7.44-7.36,11.32-10.89,.97-1.58,2.03-3.11,3.16-4.58,3.46-6.89,6.52-14.08,8.77-21.45-6.22-1.12-11.89-3.64-17.01-7.6-7.13-5.51-12.69-13.03-16.69-22.55-4-9.52-5.99-20.17-5.99-31.95s2-22.8,5.99-32.32c3.99-9.52,9.56-17.04,16.69-22.55,7.13-5.51,15.33-8.27,24.62-8.27s17.82,2.76,24.95,8.27c7.13,5.51,12.69,13.03,16.69,22.55,3.99,9.52,5.99,20.3,5.99,32.32,0,5.35-.43,10.44-1.26,15.32,1.6,.91,2.89,2.5,3.46,4.89,6.04,25.19,2.22,51.04,4.68,76.48,3.1,2.44,6.75,3.66,10.94,3.66,5.61,0,10.26-2.19,13.93-6.58,3.67-4.38,5.51-9.83,5.51-16.35V133.42c0-6.77-1.84-12.27-5.51-16.54Z"/>
    <path class="cls-1" d="M241.46,559.83c10.37,0,18.68,3.82,24.95,11.46,6.26,7.65,9.4,17.73,9.4,30.25,0,.71-.04,1.45-.08,2.19,9.76,4.98,18.52,11.58,26.69,19.04,2.62,2.39,5.16,4.86,7.66,7.38,3.29-10.9,4.94-21.06,4.94-30.5,0-16.54-2.92-30.88-8.75-43.03-5.83-12.15-14.09-21.55-24.79-28.19-10.69-6.64-23.28-9.96-37.75-9.96-6.7,0-13.61,1.32-20.74,3.95s-14.04,6.33-20.74,11.09c-6.7,4.76-12.75,10.28-18.14,16.54-3.68,4.26-6.75,8.4-9.23,12.4-2.49,4.01-3.73,8.15-3.73,12.4,0,5.51,1.99,10.34,5.99,14.47,3.99,4.13,8.37,6.2,13.12,6.2,2.16,0,4.54-.5,7.13-1.5,2.59-1,5.18-3.51,7.78-7.52,3.45-5.26,7.18-9.9,11.18-13.91,3.99-4,8.15-7.14,12.47-9.4,4.32-2.26,8.53-3.38,12.64-3.38Z"/>
    <path class="cls-1" d="M301.73,743.99h-66.6l33.06-40.91c-9.66-10.4-18.3-21.72-26.08-33.63l-62.85,77.92c-3.89,4.76-5.83,10.28-5.83,16.54s1.62,11.4,4.86,15.41c3.24,4.01,7.66,6.01,13.28,6.01h110.16c5.18,0,9.5-1.94,12.96-5.83,3.45-3.88,5.18-8.7,5.18-14.47s-1.73-11.02-5.18-15.03c-3.46-4-7.78-6.01-12.96-6.01Z"/>
    <path class="cls-1" d="M604.26,592.6c-3.68-4.26-8.32-6.39-13.93-6.39s-10.26,2.2-13.93,6.58c-3.68,4.39-5.51,9.84-5.51,16.35v73.79c-1.9-2.06-4-4.1-6.32-6.14-5.73-5.01-12.47-9.14-20.25-12.4-7.78-3.25-16.31-4.89-25.6-4.89-14.47,0-27.65,4.45-39.53,13.34-11.88,8.9-21.33,21.18-28.35,36.83-5.39,12.02-8.7,25.49-9.95,40.39,9.82,.08,19.63,.33,29.41,1.08,2.75-.53,5.51-.87,8.24-.96,.96-6.62,2.62-12.8,5.02-18.52,3.99-9.52,9.56-17.04,16.69-22.55,7.13-5.51,15.33-8.27,24.62-8.27s17.82,2.76,24.95,8.27c7.13,5.51,12.69,13.03,16.69,22.55,3.99,9.53,5.99,20.3,5.99,32.32s-2,22.43-5.99,31.95c-4,9.53-9.56,17.04-16.69,22.55-7.13,5.51-15.45,8.27-24.95,8.27s-17.5-2.75-24.62-8.27c-2.81-2.17-5.37-4.67-7.69-7.46-1.16,.25-2.32,.48-3.48,.74-8.97,5.8-19.59,7.61-30.05,9.68-2.02,.4-3.93-.01-5.56-.91-.41,.14-.81,.29-1.22,.43,6.87,14.22,15.95,25.49,27.26,33.8,12.09,8.9,25.6,13.34,40.5,13.34,8.21,0,15.82-1.57,22.84-4.7,7.02-3.13,13.12-6.95,18.31-11.46,3.84-3.34,7.08-6.71,9.73-10.12,.08,6.34,1.9,11.66,5.49,15.95,3.67,4.39,8.31,6.58,13.93,6.58s10.26-2.19,13.93-6.58c3.67-4.38,5.51-9.83,5.51-16.35v-232.27c0-6.77-1.84-12.27-5.51-16.54Z"/>
    <path class="cls-1" d="M842.87,563.67c-7.89-15.66-18.47-27.94-31.75-36.83-13.28-8.89-28.14-13.34-44.55-13.34s-31.27,4.45-44.55,13.34c-6.38,4.27-12.14,9.34-17.27,15.17,10.55,3.61,20.86,7.92,31.51,11.26,3.69,1.16,5.42,4.02,5.65,7.01,.42,.24,.83,.48,1.25,.74,.2,.13,.38,.28,.56,.42,6.94-4.4,14.56-6.61,22.86-6.61,9.07,0,17.33,2.63,24.79,7.89s13.39,12.59,17.82,21.99c4.42,9.4,6.64,20.48,6.64,33.26s-2.22,23.49-6.64,32.89c-4.43,9.4-10.37,16.72-17.82,21.99s-15.71,7.89-24.79,7.89c-4.59,0-8.97-.69-13.15-2.04-7.09,5.88-15.32,10.38-23.3,14.89-5.2,2.94-10.8,5.93-15.73,9.64,2.44,2.03,4.98,3.94,7.63,5.7,13.28,8.77,28.13,13.16,44.55,13.16s31.27-4.38,44.55-13.16c13.28-8.77,23.86-20.98,31.75-36.64,7.88-15.66,11.83-33.76,11.83-54.31s-3.94-38.65-11.83-54.31Z"/>
    <path class="cls-1" d="M1060.33,622.36h14.9v4.3c.75-.24,1.55-.39,2.43-.4,12.15-.06,25.28-1.3,36.45,3.51v-7.41h23c5.18,0,9.5-1.94,12.96-5.83,3.45-3.88,5.18-8.7,5.18-14.47s-1.73-11.02-5.18-15.03c-3.46-4-7.78-6.01-12.96-6.01h-23v-24.05c0-6.51-1.78-11.96-5.35-16.35-3.56-4.38-8.16-6.58-13.77-6.58s-10.32,2.2-14.09,6.58c-3.78,4.39-5.67,9.84-5.67,16.35v24.05h-14.9c-5.18,0-9.51,1.94-12.96,5.83-3.46,3.89-5.18,8.71-5.18,14.47s1.73,11.03,5.18,15.03c3.45,4.01,7.78,6.01,12.96,6.01Z"/>
    <path class="cls-1" d="M1141.97,735.86c-2.81,0-5.3,.56-7.45,1.69-2.16,1.13-4.54,1.69-7.13,1.69-2.38,0-4.59-.5-6.64-1.5-2.05-1-3.68-2.63-4.86-4.89-1.19-2.25-1.78-5.13-1.78-8.64v-29.51c-8.01,2.59-16.5,3.76-24.82,4.71-4.67,.53-9.36,.92-14.06,1.18v25.5c0,12.28,1.62,21.93,4.86,28.94,3.24,7.02,7.29,12.21,12.15,15.6,4.86,3.38,10.04,5.51,15.55,6.39,5.51,.88,10.53,1.32,15.07,1.32,7.56,0,14.63-2.25,21.22-6.76,6.59-4.51,9.88-10.27,9.88-17.29,0-5.76-1.25-10.27-3.73-13.53-2.49-3.25-5.24-4.89-8.26-4.89Z"/>
    <path class="cls-1" d="M1295.59,743.99c5.18,0,9.5,2.01,12.96,6.01,3.45,4.01,5.18,9.02,5.18,15.03s-1.73,10.59-5.18,14.47c-3.46,3.89-7.78,5.83-12.96,5.83h-110.16c-5.62,0-10.04-2-13.28-6.01-3.24-4-4.86-9.14-4.86-15.41s1.94-11.77,5.83-16.54l70.63-87.57c7.99-10.02,14.31-20.3,18.95-30.82,4.64-10.52,6.97-19.67,6.97-27.44,0-12.53-3.13-22.61-9.4-30.25-6.27-7.64-14.58-11.46-24.95-11.46-4.11,0-8.32,1.13-12.64,3.38-4.32,2.25-8.48,5.39-12.47,9.4-4,4.01-7.73,8.64-11.18,13.91-2.59,4.01-5.18,6.52-7.78,7.52-2.59,1-4.97,1.5-7.13,1.5-4.75,0-9.13-2.07-13.12-6.2-4-4.13-5.99-8.96-5.99-14.47,0-4.26,1.24-8.39,3.73-12.4,2.48-4,5.56-8.14,9.23-12.4,5.4-6.26,11.45-11.77,18.14-16.54,6.69-4.76,13.61-8.46,20.74-11.09s14.04-3.95,20.74-3.95c14.47,0,27.05,3.32,37.75,9.96,10.69,6.64,18.95,16.04,24.79,28.19,5.83,12.16,8.75,26.5,8.75,43.03,0,13.78-3.51,29.13-10.53,46.04-7.02,16.91-16.47,32.76-28.35,47.54l-43.74,54.12-3.56-3.38h72.9Z"/>
    <path class="cls-1" d="M187.37,462.91c-2.35-6.86-3.41-14.4-3.57-21.87-1.91-1.71-2.95-4.4-2.1-7.83,.9-3.61,1.79-7.25,2.68-10.89-4.28-1.44-8.39-.98-12.31,1.41-4.32,2.63-7.45,7.58-9.4,14.85-1.51,5.51-1.03,10.71,1.46,15.6,2.48,4.89,6.97,8.96,13.45,12.21,2.22,1.03,5.18,2.12,8.83,3.27,.23-2.22,.57-4.48,.96-6.76Z"/>
    <path class="cls-1" d="M309.45,204.06c-3.68-4.26-8.32-6.39-13.93-6.39s-10.26,2.2-13.93,6.58c-3.68,4.39-5.51,9.84-5.51,16.35v4.23c-2.58-3.31-5.65-6.6-9.23-9.87-5.51-5.01-12.04-9.14-19.6-12.4-7.56-3.25-15.88-4.89-24.95-4.89-14.9,0-28.41,4.45-40.5,13.34-12.1,8.9-21.71,21.18-28.84,36.83-7.13,15.66-10.69,33.77-10.69,54.31s3.56,38.28,10.69,53.93c7.13,15.66,16.85,27.94,29.16,36.83,1.95,1.41,3.95,2.7,5.97,3.88-.38-.94-.63-1.95-.73-3.01-1.49-15.42,2.02-30.53,7.32-44.92-3.56-4.23-6.57-9.14-8.99-14.77-4.11-9.52-6.16-20.17-6.16-31.95s2.05-22.8,6.16-32.32c4.1-9.52,9.83-17.04,17.17-22.55,7.34-5.51,15.88-8.27,25.6-8.27s18.57,2.76,25.92,8.27c7.34,5.51,13.07,13.03,17.17,22.55,4.1,9.52,6.16,20.3,6.16,32.32s-2.06,22.43-6.16,31.95c-4.11,9.52-9.83,17.04-17.17,22.55-3.71,2.78-7.74,4.86-12.11,6.24-.04,.21-.09,.42-.13,.63,1.14,13.17,1.03,26.29,.23,39.38,1.1-.41,2.19-.85,3.27-1.34,6.91-3.13,12.9-6.95,17.98-11.46,5.07-4.51,9.07-9.08,11.99-13.72,.17-.27,.32-.54,.49-.81v18.28c0,13.28-3.89,23.68-11.66,31.19-5.41,5.23-12.85,8.63-22.33,10.22,.88,13.72,1.87,27.42,3.54,41.05,8.78-1.4,17.21-3.89,25.27-7.49,13.17-5.89,23.81-15.41,31.91-28.56s12.15-30.63,12.15-52.43V220.59c0-6.77-1.84-12.27-5.51-16.54Z"/>
  </g>
</svg>